<svg width="180" height="180" viewBox="0 0 180 180" fill="none" xmlns="http://www.w3.org/2000/svg">
  <!-- Fondo con gradiente -->
  <defs>
    <linearGradient id="bgGradient" x1="0%" y1="0%" x2="100%" y2="100%">
      <stop offset="0%" style="stop-color:#3B82F6;stop-opacity:1" />
      <stop offset="100%" style="stop-color:#1E40AF;stop-opacity:1" />
    </linearGradient>
    <linearGradient id="iconGradient" x1="0%" y1="0%" x2="100%" y2="100%">
      <stop offset="0%" style="stop-color:#FFFFFF;stop-opacity:1" />
      <stop offset="100%" style="stop-color:#E5E7EB;stop-opacity:1" />
    </linearGradient>
  </defs>
  
  <!-- Fondo redondeado (iOS style) -->
  <rect width="180" height="180" rx="40" fill="url(#bgGradient)"/>
  
  <!-- Icono principal -->
  <g transform="translate(30, 30)">
    <!-- Panel principal -->
    <rect x="15" y="15" width="90" height="60" rx="8" fill="url(#iconGradient)" stroke="#1E40AF" stroke-width="2"/>
    
    <!-- Gráfico de barras -->
    <g transform="translate(22, 26)">
      <rect x="0" y="18" width="7" height="15" rx="2" fill="#3B82F6"/>
      <rect x="11" y="11" width="7" height="22" rx="2" fill="#60A5FA"/>
      <rect x="22" y="15" width="7" height="18" rx="2" fill="#93C5FD"/>
      <rect x="33" y="8" width="7" height="25" rx="2" fill="#3B82F6"/>
    </g>
    
    <!-- Indicador circular -->
    <g transform="translate(68, 26)">
      <circle cx="11" cy="11" r="7" fill="none" stroke="#10B981" stroke-width="2.5" stroke-dasharray="14 4"/>
      <circle cx="11" cy="11" r="2.5" fill="#10B981"/>
      <text x="11" y="30" text-anchor="middle" font-family="Arial, sans-serif" font-size="7" fill="#374151">85%</text>
    </g>
    
    <!-- Líneas de datos -->
    <g transform="translate(22, 49)">
      <line x1="0" y1="0" x2="68" y2="0" stroke="#E5E7EB" stroke-width="1"/>
      <line x1="0" y1="7" x2="52" y2="7" stroke="#E5E7EB" stroke-width="1"/>
      <line x1="0" y1="14" x2="60" y2="14" stroke="#E5E7EB" stroke-width="1"/>
    </g>
    
    <!-- Tarjetas inferiores -->
    <rect x="7" y="83" width="30" height="22" rx="4" fill="url(#iconGradient)" stroke="#1E40AF" stroke-width="1"/>
    <rect x="45" y="83" width="30" height="22" rx="4" fill="url(#iconGradient)" stroke="#1E40AF" stroke-width="1"/>
    <rect x="83" y="83" width="30" height="22" rx="4" fill="url(#iconGradient)" stroke="#1E40AF" stroke-width="1"/>
    
    <!-- Iconos en las tarjetas -->
    <g transform="translate(15, 90)">
      <!-- Icono de orden -->
      <rect x="4" y="2" width="7" height="5" rx="1" fill="#3B82F6"/>
      <line x1="5.5" y1="3.5" x2="9.5" y2="3.5" stroke="white" stroke-width="0.5"/>
      <line x1="5.5" y1="5.5" x2="9.5" y2="5.5" stroke="white" stroke-width="0.5"/>
    </g>
    
    <g transform="translate(53, 90)">
      <!-- Icono de dinero -->
      <circle cx="7.5" cy="4" r="2.5" fill="none" stroke="#10B981" stroke-width="1"/>
      <text x="7.5" y="5.5" text-anchor="middle" font-family="Arial, sans-serif" font-size="3" fill="#10B981">$</text>
    </g>
    
    <g transform="translate(91, 90)">
      <!-- Icono de reporte -->
      <rect x="4" y="2" width="7" height="5" rx="1" fill="#F59E0B"/>
      <line x1="5.5" y1="3" x2="9.5" y2="3" stroke="white" stroke-width="0.4"/>
      <line x1="5.5" y1="4.5" x2="7.5" y2="4.5" stroke="white" stroke-width="0.4"/>
      <line x1="5.5" y1="6" x2="8.5" y2="6" stroke="white" stroke-width="0.4"/>
    </g>
  </g>
  
  <!-- Texto NexBoard -->
  <text x="90" y="158" text-anchor="middle" font-family="Arial, sans-serif" font-size="14" font-weight="bold" fill="white">NexBoard</text>
</svg>