<svg width="192" height="192" viewBox="0 0 192 192" fill="none" xmlns="http://www.w3.org/2000/svg">
  <!-- Fondo con gradiente -->
  <defs>
    <linearGradient id="bgGradient" x1="0%" y1="0%" x2="100%" y2="100%">
      <stop offset="0%" style="stop-color:#3B82F6;stop-opacity:1" />
      <stop offset="100%" style="stop-color:#1E40AF;stop-opacity:1" />
    </linearGradient>
    <linearGradient id="iconGradient" x1="0%" y1="0%" x2="100%" y2="100%">
      <stop offset="0%" style="stop-color:#FFFFFF;stop-opacity:1" />
      <stop offset="100%" style="stop-color:#E5E7EB;stop-opacity:1" />
    </linearGradient>
  </defs>
  
  <!-- Fondo redondeado -->
  <rect width="192" height="192" rx="32" fill="url(#bgGradient)"/>
  
  <!-- Icono principal - Dashboard/Board -->
  <g transform="translate(32, 32)">
    <!-- Panel principal -->
    <rect x="16" y="16" width="96" height="64" rx="8" fill="url(#iconGradient)" stroke="#1E40AF" stroke-width="2"/>
    
    <!-- Elementos del dashboard -->
    <!-- Gráfico de barras -->
    <g transform="translate(24, 28)">
      <rect x="0" y="20" width="8" height="16" rx="2" fill="#3B82F6"/>
      <rect x="12" y="12" width="8" height="24" rx="2" fill="#60A5FA"/>
      <rect x="24" y="16" width="8" height="20" rx="2" fill="#93C5FD"/>
      <rect x="36" y="8" width="8" height="28" rx="2" fill="#3B82F6"/>
    </g>
    
    <!-- Indicadores circulares -->
    <g transform="translate(72, 28)">
      <circle cx="12" cy="12" r="8" fill="none" stroke="#10B981" stroke-width="3" stroke-dasharray="15 5"/>
      <circle cx="12" cy="12" r="3" fill="#10B981"/>
      <text x="12" y="32" text-anchor="middle" font-family="Arial, sans-serif" font-size="8" fill="#374151">85%</text>
    </g>
    
    <!-- Líneas de datos -->
    <g transform="translate(24, 52)">
      <line x1="0" y1="0" x2="72" y2="0" stroke="#E5E7EB" stroke-width="1"/>
      <line x1="0" y1="8" x2="56" y2="8" stroke="#E5E7EB" stroke-width="1"/>
      <line x1="0" y1="16" x2="64" y2="16" stroke="#E5E7EB" stroke-width="1"/>
    </g>
    
    <!-- Tarjetas laterales -->
    <rect x="8" y="88" width="32" height="24" rx="4" fill="url(#iconGradient)" stroke="#1E40AF" stroke-width="1"/>
    <rect x="48" y="88" width="32" height="24" rx="4" fill="url(#iconGradient)" stroke="#1E40AF" stroke-width="1"/>
    <rect x="88" y="88" width="32" height="24" rx="4" fill="url(#iconGradient)" stroke="#1E40AF" stroke-width="1"/>
    
    <!-- Iconos en las tarjetas -->
    <g transform="translate(16, 96)">
      <!-- Icono de orden -->
      <rect x="4" y="2" width="8" height="6" rx="1" fill="#3B82F6"/>
      <line x1="6" y1="4" x2="10" y2="4" stroke="white" stroke-width="0.5"/>
      <line x1="6" y1="6" x2="10" y2="6" stroke="white" stroke-width="0.5"/>
    </g>
    
    <g transform="translate(56, 96)">
      <!-- Icono de dinero -->
      <circle cx="8" cy="4" r="3" fill="none" stroke="#10B981" stroke-width="1"/>
      <text x="8" y="6" text-anchor="middle" font-family="Arial, sans-serif" font-size="4" fill="#10B981">$</text>
    </g>
    
    <g transform="translate(96, 96)">
      <!-- Icono de reporte -->
      <rect x="4" y="2" width="8" height="6" rx="1" fill="#F59E0B"/>
      <line x1="6" y1="3" x2="10" y2="3" stroke="white" stroke-width="0.5"/>
      <line x1="6" y1="5" x2="8" y2="5" stroke="white" stroke-width="0.5"/>
      <line x1="6" y1="7" x2="9" y2="7" stroke="white" stroke-width="0.5"/>
    </g>
  </g>
  
  <!-- Texto NexBoard -->
  <text x="96" y="168" text-anchor="middle" font-family="Arial, sans-serif" font-size="16" font-weight="bold" fill="white">NexBoard</text>
</svg>