<svg width="512" height="512" viewBox="0 0 512 512" fill="none" xmlns="http://www.w3.org/2000/svg">
  <!-- Fondo con gradiente -->
  <defs>
    <linearGradient id="bgGradient" x1="0%" y1="0%" x2="100%" y2="100%">
      <stop offset="0%" style="stop-color:#3B82F6;stop-opacity:1" />
      <stop offset="100%" style="stop-color:#1E40AF;stop-opacity:1" />
    </linearGradient>
    <linearGradient id="iconGradient" x1="0%" y1="0%" x2="100%" y2="100%">
      <stop offset="0%" style="stop-color:#FFFFFF;stop-opacity:1" />
      <stop offset="100%" style="stop-color:#E5E7EB;stop-opacity:1" />
    </linearGradient>
  </defs>
  
  <!-- Fondo redondeado -->
  <rect width="512" height="512" rx="80" fill="url(#bgGradient)"/>
  
  <!-- Icono principal - Dashboard/Board -->
  <g transform="translate(80, 80)">
    <!-- Panel principal -->
    <rect x="48" y="48" width="256" height="160" rx="20" fill="url(#iconGradient)" stroke="#1E40AF" stroke-width="4"/>
    
    <!-- Elementos del dashboard -->
    <!-- Gráfico de barras -->
    <g transform="translate(72, 72)">
      <rect x="0" y="48" width="20" height="40" rx="4" fill="#3B82F6"/>
      <rect x="32" y="32" width="20" height="56" rx="4" fill="#60A5FA"/>
      <rect x="64" y="40" width="20" height="48" rx="4" fill="#93C5FD"/>
      <rect x="96" y="24" width="20" height="64" rx="4" fill="#3B82F6"/>
      <rect x="128" y="36" width="20" height="52" rx="4" fill="#60A5FA"/>
    </g>
    
    <!-- Indicador circular -->
    <g transform="translate(200, 72)">
      <circle cx="32" cy="32" r="24" fill="none" stroke="#10B981" stroke-width="6" stroke-dasharray="40 12"/>
      <circle cx="32" cy="32" r="8" fill="#10B981"/>
      <text x="32" y="80" text-anchor="middle" font-family="Arial, sans-serif" font-size="20" font-weight="bold" fill="#374151">85%</text>
    </g>
    
    <!-- Líneas de datos -->
    <g transform="translate(72, 136)">
      <line x1="0" y1="0" x2="180" y2="0" stroke="#E5E7EB" stroke-width="2"/>
      <line x1="0" y1="16" x2="144" y2="16" stroke="#E5E7EB" stroke-width="2"/>
      <line x1="0" y1="32" x2="160" y2="32" stroke="#E5E7EB" stroke-width="2"/>
      <line x1="0" y1="48" x2="120" y2="48" stroke="#E5E7EB" stroke-width="2"/>
    </g>
    
    <!-- Tarjetas inferiores -->
    <rect x="24" y="240" width="80" height="60" rx="12" fill="url(#iconGradient)" stroke="#1E40AF" stroke-width="2"/>
    <rect x="136" y="240" width="80" height="60" rx="12" fill="url(#iconGradient)" stroke="#1E40AF" stroke-width="2"/>
    <rect x="248" y="240" width="80" height="60" rx="12" fill="url(#iconGradient)" stroke="#1E40AF" stroke-width="2"/>
    
    <!-- Iconos en las tarjetas -->
    <g transform="translate(44, 256)">
      <!-- Icono de orden -->
      <rect x="12" y="8" width="24" height="16" rx="3" fill="#3B82F6"/>
      <line x1="16" y1="12" x2="32" y2="12" stroke="white" stroke-width="2"/>
      <line x1="16" y1="16" x2="32" y2="16" stroke="white" stroke-width="2"/>
      <line x1="16" y1="20" x2="28" y2="20" stroke="white" stroke-width="2"/>
    </g>
    
    <g transform="translate(156, 256)">
      <!-- Icono de dinero -->
      <circle cx="20" cy="16" r="12" fill="none" stroke="#10B981" stroke-width="3"/>
      <text x="20" y="20" text-anchor="middle" font-family="Arial, sans-serif" font-size="12" font-weight="bold" fill="#10B981">$</text>
    </g>
    
    <g transform="translate(268, 256)">
      <!-- Icono de reporte -->
      <rect x="12" y="8" width="24" height="16" rx="3" fill="#F59E0B"/>
      <line x1="16" y1="12" x2="32" y2="12" stroke="white" stroke-width="2"/>
      <line x1="16" y1="16" x2="24" y2="16" stroke="white" stroke-width="2"/>
      <line x1="16" y1="20" x2="28" y2="20" stroke="white" stroke-width="2"/>
    </g>
  </g>
  
  <!-- Texto NexBoard -->
  <text x="256" y="440" text-anchor="middle" font-family="Arial, sans-serif" font-size="40" font-weight="bold" fill="white">NexBoard</text>
</svg>